<mxfile host="app.diagrams.net" modified="2024-07-17T13:00:42.552Z" agent="Mozilla/5.0 (Windows NT 10.0; Win64; x64) AppleWebKit/537.36 (KHTML, like Gecko) Chrome/126.0.0.0 Safari/537.36" version="24.6.5" etag="TXKx_txdtP4YljqBWe_g" type="github">
  <diagram name="第 1 页" id="PxpbC_HFDT9rgN7Bsp0z">
    <mxGraphModel>
      <root>
        <mxCell id="0" />
        <mxCell id="1" parent="0" />
      </root>
    </mxGraphModel>
  </diagram>
</mxfile>
